<svg xmlns="http://www.w3.org/2000/svg" viewBox="0 0 714 220" width="714" height="220">
  
  <g transform="translate(20 30)">
    <circle cx="22.39999999999999" cy="80" r="11.200000000000001" fill="#F5C518"/>
    <rect x="52.79999999999999" y="73.6" width="25.6" height="12.8" fill="#3F1D9E"/>
    <rect x="103.1" y="59.9" width="40.2" height="40.2" fill="none" stroke="#3F1D9E" stroke-width="11"/>
  </g>
  <path transform="translate(216 50)" d="M 0 0 H 22 V 120 H 0 Z" fill="#3F1D9E" fill-rule="evenodd"/>
  <path transform="translate(266 50)" d="M 0 0 L 46 0 C 71 0 88 27 88 60 C 88 93 71 120 46 120 L 0 120 Z M 22 22 L 46 22 C 58 22 66 40 66 60 C 66 80 58 98 46 98 L 22 98 Z" fill="#3F1D9E" fill-rule="evenodd"/>
  <path transform="translate(382 50)" d="M 0 0 H 80 V 22 H 22 V 49 H 72 V 71 H 22 V 98 H 80 V 120 H 0 Z" fill="#3F1D9E" fill-rule="evenodd"/>
  <path transform="translate(490 50)" d="M 0 120 L 44 0 L 88 120 L 66 120 L 60 95 L 28 95 L 22 120 Z M 33 78 L 55 78 L 44 32 Z" fill="#3F1D9E" fill-rule="evenodd"/>
  <path transform="translate(606 50)" d="M 0 120 L 44 0 L 88 120 L 66 120 L 60 95 L 28 95 L 22 120 Z M 33 78 L 55 78 L 44 32 Z" fill="#3F1D9E" fill-rule="evenodd"/>
</svg>