<svg xmlns="http://www.w3.org/2000/svg" viewBox="0 0 682 160" width="682" height="160">
  
  <g transform="translate(20 14)"><path d="
    M 59.4 5.5
    L 126.5 5.5
    L 126.5 126.5
    L 5.5 126.5
    L 5.5 59.4
  " stroke="#0A0A0A" stroke-width="11" fill="none" stroke-linejoin="miter" stroke-linecap="square"/><circle cx="30.36" cy="30.36" r="11" fill="#E63946"/></g>
  <path transform="translate(184 20)" d="M 0 0 H 22 V 120 H 0 Z" fill="#0A0A0A" fill-rule="evenodd"/>
  <path transform="translate(234 20)" d="M 0 0 L 46 0 C 71 0 88 27 88 60 C 88 93 71 120 46 120 L 0 120 Z M 22 22 L 46 22 C 58 22 66 40 66 60 C 66 80 58 98 46 98 L 22 98 Z" fill="#0A0A0A" fill-rule="evenodd"/>
  <path transform="translate(350 20)" d="M 0 0 H 80 V 22 H 22 V 49 H 72 V 71 H 22 V 98 H 80 V 120 H 0 Z" fill="#0A0A0A" fill-rule="evenodd"/>
  <path transform="translate(458 20)" d="M 0 120 L 44 0 L 88 120 L 66 120 L 60 95 L 28 95 L 22 120 Z M 33 78 L 55 78 L 44 32 Z" fill="#0A0A0A" fill-rule="evenodd"/>
  <path transform="translate(574 20)" d="M 0 120 L 44 0 L 88 120 L 66 120 L 60 95 L 28 95 L 22 120 Z M 33 78 L 55 78 L 44 32 Z" fill="#0A0A0A" fill-rule="evenodd"/>
</svg>